<?xml version="1.0" encoding="utf-8"?>
<!-- Generator: Adobe Illustrator 25.2.3, SVG Export Plug-In . SVG Version: 6.00 Build 0)  -->
<svg version="1.1" id="Layer_1" xmlns="http://www.w3.org/2000/svg" xmlns:xlink="http://www.w3.org/1999/xlink" x="0px" y="0px"
	 viewBox="0 0 1129.7 723.6" style="enable-background:new 0 0 1129.7 723.6;" xml:space="preserve">
<style type="text/css">
	.st0{fill:#F87315;}
</style>
<path class="st0" d="M319.7,723.2C363,648.1,405.8,573.7,449.4,498c-150.6,0-299.6,0-449.4,0c1.1-2.3,1.6-3.7,2.4-4.9
	c94.1-163,188.3-326,282.4-489.1c1.8-3,3.7-4,7.1-4c70.7,0.1,141.3,0.1,212,0.1c1.6,0,3.2,0,6.4,0
	c-66.3,114.8-132,228.5-198.2,343.1c2.8,0.2,4.5,0.4,6.3,0.4c71.7-0.1,143.3-0.2,215-0.2c4.3,0,6.5-1.7,8.6-5.2
	c40.2-69.9,80.5-139.8,120.6-209.8C689.1,82.2,725.8,47.1,773.8,24c27.3-13.1,56.1-21,86.3-23.1c70.6-4.8,133.1,15.3,186.2,62.2
	c44,38.9,70.7,88,79.9,146.1c11.1,69.8-4.2,133.7-47.1,189.9c-41.7,54.5-97.2,86.7-165.3,96.4c-10.9,1.5-21.9,2.2-32.9,2.2
	c-52,0.2-104,0.1-156,0.1c-1.6,0-3.2,0-5.9,0c1.2-2.5,1.8-4.1,2.7-5.6c26.2-47.6,52.5-95.1,78.6-142.8c2.5-4.5,5.1-6.3,10.5-6.1
	c32.7,1,65.4-0.2,97.5-7.3c39.5-8.7,67.4-42.3,69.7-82.4c2.3-39.6-22.5-76.3-60.5-89.7s-81.4,1.2-104.2,36.4
	c-11.9,18.4-22,38.1-32.6,57.3C695.9,411,611.1,564.5,526.5,718c-2.2,3.9-4.7,5.2-9.1,5.2c-63.7,0-127.3,0.1-191,0.2
	C324.5,723.6,322.5,723.4,319.7,723.2z"/>
</svg>
